# xmcd CD database file
#
# Track frame offsets:
#	150
#	17203
#	34607
#	52430
#	70081
#	88696
#	106417
#	122498
#	139340
#	157091
#	176317
#	197821
#	216998
#	237311
#	255334
#	272254
#
# Disc length: 3849 seconds
#
# Revision: 0
# Processed by: cddbd v1.5.2PL0 Copyright (c) Steve Scherf et al.
# Submitted via: CDex 1.51
#
DISCID=e40f0710
DTITLE=Ryan Farish - Wonderfall
DYEAR=2008
DGENRE=New Age
TTITLE0=Holding Hands
TTITLE1=Open Sky
TTITLE2=Learning To Fly
TTITLE3=Road To You
TTITLE4=Touch The Sky
TTITLE5=Still Life
TTITLE6=Sahara Wind
TTITLE7=Wonderfall
TTITLE8=Silence
TTITLE9=Fall Rain
TTITLE10=Seasons Change
TTITLE11=Elevation
TTITLE12=Winter
TTITLE13=Don't Cry
TTITLE14=Sunshine
TTITLE15=Be Near
EXTD=YEAR: 2008
EXTT0=
EXTT1=
EXTT2=
EXTT3=
EXTT4=
EXTT5=
EXTT6=
EXTT7=
EXTT8=
EXTT9=
EXTT10=
EXTT11=
EXTT12=
EXTT13=
EXTT14=
EXTT15=
PLAYORDER=
